<svg viewBox="0 0 380 300" xmlns="http://www.w3.org/2000/svg" role="img" aria-label="Cybersecurity Essentials placeholder image">
  <defs>
    <linearGradient id="bg" x1="0" y1="0" x2="1" y2="1">
      <stop offset="0%" stop-color="#0a0f1a"/>
      <stop offset="100%" stop-color="#050710"/>
    </linearGradient>
    <linearGradient id="stroke" x1="0" y1="0" x2="1" y2="1">
      <stop offset="0%" stop-color="#4fd8ff"/>
      <stop offset="100%" stop-color="#2a8fd6"/>
    </linearGradient>
    <filter id="glow" x="-60%" y="-60%" width="220%" height="220%">
      <feGaussianBlur stdDeviation="6" result="blur"/>
      <feMerge>
        <feMergeNode in="blur"/>
        <feMergeNode in="SourceGraphic"/>
      </feMerge>
    </filter>
  </defs>
  <rect x="0" y="0" width="380" height="300" fill="url(#bg)"/>
  <g opacity="0.18" stroke="#4fd8ff" stroke-width="1">
    <line x1="0" y1="0" x2="0" y2="300"/><line x1="32" y1="0" x2="32" y2="300"/><line x1="64" y1="0" x2="64" y2="300"/><line x1="96" y1="0" x2="96" y2="300"/><line x1="128" y1="0" x2="128" y2="300"/><line x1="160" y1="0" x2="160" y2="300"/><line x1="192" y1="0" x2="192" y2="300"/><line x1="224" y1="0" x2="224" y2="300"/><line x1="256" y1="0" x2="256" y2="300"/><line x1="288" y1="0" x2="288" y2="300"/><line x1="320" y1="0" x2="320" y2="300"/><line x1="352" y1="0" x2="352" y2="300"/>
    <line x1="0" y1="0" x2="380" y2="0"/><line x1="0" y1="32" x2="380" y2="32"/><line x1="0" y1="64" x2="380" y2="64"/><line x1="0" y1="96" x2="380" y2="96"/><line x1="0" y1="128" x2="380" y2="128"/><line x1="0" y1="160" x2="380" y2="160"/><line x1="0" y1="192" x2="380" y2="192"/><line x1="0" y1="224" x2="380" y2="224"/><line x1="0" y1="256" x2="380" y2="256"/><line x1="0" y1="288" x2="380" y2="288"/>
  </g>
  <rect x="6" y="6" width="368" height="288" rx="14" fill="none" stroke="url(#stroke)" stroke-width="1.5" opacity="0.7"/>
  <g filter="url(#glow)" transform="translate(190.0, 128.0)">
    
<g fill="none" stroke="#4fd8ff" stroke-width="4" stroke-linecap="round" stroke-linejoin="round">
  <path d="M0,-38 L32,-24 L32,10 C32,32 16,42 0,48 C-16,42 -32,32 -32,10 L-32,-24 Z"/>
  <path d="M-14,2 L-4,14 L18,-12"/>
</g>

  </g>
  <text x="190.0" y="266" text-anchor="middle" font-family="Space Grotesk, sans-serif" font-size="22" font-weight="700" fill="#e8eef7">Cybersecurity Essentials</text>
  <text x="190.0" y="286" text-anchor="middle" font-family="IBM Plex Mono, monospace" font-size="11" letter-spacing="2" fill="#4fd8ff" opacity="0.85">PLACEHOLDER · REPLACE ME</text>
</svg>